{
  "accessors": [
    {
      "bufferView": 1,
      "componentType": 5126,
      "count": 3278,
      "max": [
        13.84931755065918,
        170.30691528320312,
        8.3925895690917969
      ],
      "min": [
        -13.84954833984375,
        144.75103759765625,
        -14.327460289001465
      ],
      "type": "VEC3"
    },
    {
      "bufferView": 1,
      "byteOffset": 39336,
      "componentType": 5126,
      "count": 3278,
      "max": [
        1,
        0.99915742874145508,
        0.99975645542144775
      ],
      "min": [
        -0.99978244304656982,
        -0.98800212144851685,
        -0.99853932857513428
      ],
      "type": "VEC3"
    },
    {
      "bufferView": 2,
      "componentType": 5126,
      "count": 3278,
      "max": [
        1,
        0.99949640035629272,
        1,
        1
      ],
      "min": [
        -0.99963712692260742,
        -0.9994964599609375,
        -1,
        -1
      ],
      "type": "VEC4"
    },
    {
      "bufferView": 0,
      "componentType": 5125,
      "count": 9996,
      "max": [
        3277
      ],
      "min": [
        0
      ],
      "type": "SCALAR"
    },
    {
      "bufferView": 1,
      "byteOffset": 78672,
      "componentType": 5126,
      "count": 7073,
      "max": [
        16.257907867431641,
        165.26264953613281,
        11.856417655944824
      ],
      "min": [
        -16.258302688598633,
        88.257896423339844,
        -13.534998893737793
      ],
      "type": "VEC3"
    },
    {
      "bufferView": 1,
      "byteOffset": 163548,
      "componentType": 5126,
      "count": 7073,
      "max": [
        1,
        1,
        1
      ],
      "min": [
        -1,
        -1,
        -1
      ],
      "type": "VEC3"
    },
    {
      "bufferView": 2,
      "byteOffset": 52448,
      "componentType": 5126,
      "count": 7073,
      "max": [
        1,
        1,
        1,
        1
      ],
      "min": [
        -1,
        -1,
        -1,
        -1
      ],
      "type": "VEC4"
    },
    {
      "bufferView": 0,
      "byteOffset": 39984,
      "componentType": 5125,
      "count": 26166,
      "max": [
        7072
      ],
      "min": [
        0
      ],
      "type": "SCALAR"
    },
    {
      "bufferView": 1,
      "byteOffset": 248424,
      "componentType": 5126,
      "count": 576,
      "max": [
        4.8170261383056641,
        156.85626220703125,
        7.2771344184875488
      ],
      "min": [
        -4.8173837661743164,
        155.09075927734375,
        5.4571709632873535
      ],
      "type": "VEC3"
    },
    {
      "bufferView": 1,
      "byteOffset": 255336,
      "componentType": 5126,
      "count": 576,
      "max": [
        0.88493412733078003,
        0.99999946355819702,
        0.9984513521194458
      ],
      "min": [
        -0.88493412733078003,
        -0.99999958276748657,
        -0.18805892765522003
      ],
      "type": "VEC3"
    },
    {
      "bufferView": 2,
      "byteOffset": 165616,
      "componentType": 5126,
      "count": 576,
      "max": [
        0.95994532108306885,
        0.98012155294418335,
        -0.036432530730962753,
        1
      ],
      "min": [
        -0.95991319417953491,
        -0.88338172435760498,
        -0.99956446886062622,
        -1
      ],
      "type": "VEC4"
    },
    {
      "bufferView": 0,
      "byteOffset": 144648,
      "componentType": 5125,
      "count": 612,
      "max": [
        575
      ],
      "min": [
        0
      ],
      "type": "SCALAR"
    },
    {
      "bufferView": 1,
      "byteOffset": 262248,
      "componentType": 5126,
      "count": 6857,
      "max": [
        76.39764404296875,
        169.29763793945312,
        14.087356567382812
      ],
      "min": [
        -76.397964477539062,
        0.15628872811794281,
        -12.947894096374512
      ],
      "type": "VEC3"
    },
    {
      "bufferView": 1,
      "byteOffset": 344532,
      "componentType": 5126,
      "count": 6857,
      "max": [
        1,
        1,
        0.99998050928115845
      ],
      "min": [
        -1,
        -1,
        -1
      ],
      "type": "VEC3"
    },
    {
      "bufferView": 2,
      "byteOffset": 174832,
      "componentType": 5126,
      "count": 6857,
      "max": [
        1,
        0.99997454881668091,
        0.99999934434890747,
        1
      ],
      "min": [
        -0.99924135208129883,
        -0.99998152256011963,
        -0.99996060132980347,
        -1
      ],
      "type": "VEC4"
    },
    {
      "bufferView": 0,
      "byteOffset": 147096,
      "componentType": 5125,
      "count": 28542,
      "max": [
        6856
      ],
      "min": [
        0
      ],
      "type": "SCALAR"
    },
    {
      "bufferView": 3,
      "componentType": 5126,
      "count": 1,
      "max": [
        1,
        0,
        0,
        0,
        0,
        1,
        0,
        0,
        0,
        0,
        1,
        0,
        0,
        0,
        0,
        1
      ],
      "min": [
        1,
        0,
        0,
        0,
        0,
        1,
        0,
        0,
        0,
        0,
        1,
        0,
        0,
        0,
        0,
        1
      ],
      "type": "MAT4"
    }
  ],
  "asset": {
    "extras": {
      "author": "Freakz3d (https://sketchfab.com/Freakz3d)",
      "license": "CC-BY-4.0 (http://creativecommons.org/licenses/by/4.0/)",
      "source": "https://sketchfab.com/models/71e224a9edc3471eb9b48c5a3e32af0b",
      "title": "Juliet Striped Bikini"
    },
    "generator": "Sketchfab-3.18.5",
    "version": "2.0"
  },
  "bufferViews": [
    {
      "buffer": 0,
      "byteLength": 261264,
      "byteOffset": 0,
      "name": "floatBufferViews",
      "target": 34963
    },
    {
      "buffer": 0,
      "byteLength": 426816,
      "byteOffset": 261264,
      "byteStride": 12,
      "name": "floatBufferViews",
      "target": 34962
    },
    {
      "buffer": 0,
      "byteLength": 284544,
      "byteOffset": 688080,
      "byteStride": 16,
      "name": "floatBufferViews",
      "target": 34962
    },
    {
      "buffer": 0,
      "byteLength": 64,
      "byteOffset": 972624,
      "byteStride": 64,
      "name": "floatBufferViews"
    }
  ],
  "buffers": [
    {
      "byteLength": 972688,
      "uri": "scene.bin"
    }
  ],
  "materials": [
    {
      "doubleSided": true,
      "emissiveFactor": [
        0,
        0,
        0
      ],
      "name": "MI_CH_Main_Juliet_Hair_Cine_Cos21",
      "pbrMetallicRoughness": {
        "baseColorFactor": [
          1,
          1,
          1,
          1
        ],
        "metallicFactor": 0,
        "roughnessFactor": 0.59999999999999998
      }
    },
    {
      "doubleSided": true,
      "emissiveFactor": [
        0,
        0,
        0
      ],
      "name": "MI_CH_Main_Juliet_Skin_Cine_Cos21",
      "pbrMetallicRoughness": {
        "baseColorFactor": [
          1,
          1,
          1,
          1
        ],
        "metallicFactor": 0,
        "roughnessFactor": 0.59999999999999998
      }
    },
    {
      "doubleSided": true,
      "emissiveFactor": [
        0,
        0,
        0
      ],
      "name": "MI_CH_Main_Juliet_Eyelash_Cine_Cos21",
      "pbrMetallicRoughness": {
        "baseColorFactor": [
          1,
          1,
          1,
          1
        ],
        "metallicFactor": 0,
        "roughnessFactor": 0.59999999999999998
      }
    },
    {
      "doubleSided": true,
      "emissiveFactor": [
        0,
        0,
        0
      ],
      "name": "MI_CH_Main_Juliet_Cloth_Cine_Cos21",
      "pbrMetallicRoughness": {
        "baseColorFactor": [
          1,
          1,
          1,
          1
        ],
        "metallicFactor": 0,
        "roughnessFactor": 0.59999999999999998
      }
    }
  ],
  "meshes": [
    {
      "primitives": [
        {
          "attributes": {
            "NORMAL": 1,
            "POSITION": 0,
            "TANGENT": 2
          },
          "indices": 3,
          "material": 0,
          "mode": 4
        }
      ]
    },
    {
      "primitives": [
        {
          "attributes": {
            "NORMAL": 5,
            "POSITION": 4,
            "TANGENT": 6
          },
          "indices": 7,
          "material": 1,
          "mode": 4
        }
      ]
    },
    {
      "primitives": [
        {
          "attributes": {
            "NORMAL": 9,
            "POSITION": 8,
            "TANGENT": 10
          },
          "indices": 11,
          "material": 2,
          "mode": 4
        }
      ]
    },
    {
      "primitives": [
        {
          "attributes": {
            "NORMAL": 13,
            "POSITION": 12,
            "TANGENT": 14
          },
          "indices": 15,
          "material": 3,
          "mode": 4
        }
      ]
    }
  ],
  "nodes": [
    {
      "children": [
        1
      ],
      "name": "RootNode (gltf orientation matrix)",
      "rotation": [
        -0.70710678118654746,
        -0,
        -0,
        0.70710678118654757
      ]
    },
    {
      "children": [
        2
      ],
      "name": "RootNode (model correction matrix)"
    },
    {
      "children": [
        3
      ],
      "matrix": [
        1,
        0,
        0,
        0,
        0,
        -4.3711390063094768e-08,
        0.999999999999999,
        0,
        0,
        -0.999999999999999,
        -4.3711390063094768e-08,
        0,
        0,
        0,
        0,
        1
      ],
      "name": "Collada visual scene group"
    },
    {
      "children": [
        4,
        5,
        6,
        7,
        8
      ],
      "name": ""
    },
    {
      "name": "_rootJoint"
    },
    {
      "mesh": 0,
      "name": ""
    },
    {
      "mesh": 1,
      "name": ""
    },
    {
      "mesh": 2,
      "name": ""
    },
    {
      "mesh": 3,
      "name": ""
    }
  ],
  "scene": 0,
  "scenes": [
    {
      "name": "OSG_Scene",
      "nodes": [
        0
      ]
    }
  ],
  "skins": [
    {
      "inverseBindMatrices": 16,
      "joints": [
        4
      ],
      "skeleton": 4
    }
  ]
}

